<?xml version="1.0" encoding="utf-8"?>
<!-- Generator: Adobe Illustrator 19.0.0, SVG Export Plug-In . SVG Version: 6.00 Build 0)  -->
<svg version="1.1" id="Layer_1" xmlns="http://www.w3.org/2000/svg" xmlns:xlink="http://www.w3.org/1999/xlink" x="0px" y="0px"
	 viewBox="0 0 500 500" style="enable-background:new 0 0 500 500;" xml:space="preserve">
<style type="text/css">
	.st0{fill:#231F20;}
	.st1{fill:#FFFFFF;}
</style>
<g id="XMLID_1_">
	<path id="XMLID_3_" class="st0" d="M221.4,389.1l0,0.2l-4.3,20.1c-0.2,0.9,0,1.5,0.5,1.8c0.5,0.3,1.5,0.7,2.9,1.1l-0.1,0.5l-11-2.3
		l0.1-0.5c1.6,0.3,2.7,0.3,3.2,0.1c0.5-0.2,0.9-0.8,1.1-1.8l3.3-15.4c0.1-0.6,0.1-1,0-1.3c-0.1-0.3-0.4-0.5-0.9-0.6
		c-0.3-0.1-0.8-0.1-1.4,0c-0.6,0-1.1,0.1-1.6,0.2l0.1-0.5l7.9-1.6l0.2,0L221.4,389.1"/>
	<path id="XMLID_6_" class="st0" d="M245.8,394.9c1.5,2.1,2.1,4.4,1.9,6.8c-0.1,1.7-0.6,3.4-1.5,5.2c-0.9,1.7-2.1,3.2-3.6,4.5
		c-1.8,1.5-4,2.5-6.7,3.1c-1.5,0.3-3.3,0.6-5.6,0.6l-0.2-0.7c1.4-0.2,2.6-0.4,3.5-0.6c1.7-0.4,3.1-1,4.1-1.8c1.5-1,2.7-2.2,3.7-3.6
		c0.9-1.4,1.6-2.5,1.8-3.4l-0.7,0.4c-1,0.6-2.2,0.9-3.6,1.1c-0.7,0.1-1.3,0.1-1.9,0.1c-2.3-0.2-4-1-5.2-2.4c-1.2-1.5-1.8-3.1-1.6-5
		c0.2-2.4,1.1-4.4,2.8-5.8c1.7-1.5,3.8-2.1,6.2-1.9C242.1,391.6,244.3,392.8,245.8,394.9 M241.7,404.7c1-0.4,1.6-0.7,1.7-1
		c0.1-0.1,0.1-0.5,0.2-1.3c0.1-0.7,0.2-1.3,0.2-1.8c0.2-2.4-0.2-4.3-1-5.9c-0.8-1.5-2.1-2.4-3.9-2.5c-1.3-0.1-2.4,0.3-3.3,1.3
		c-0.9,1-1.4,2.4-1.5,4.5c-0.1,1.7,0.1,3.2,0.8,4.7c0.7,1.5,2,2.3,3.9,2.4C239.7,405.3,240.7,405.1,241.7,404.7"/>
	<path id="XMLID_9_" class="st0" d="M268.2,412.3c-1.4,1.8-3.4,2.7-5.9,2.9c-2.3,0.2-4.5-0.6-6.6-2.3c-2.1-1.7-3.2-4.1-3.4-7.2
		c-0.3-4,1.3-7.5,4.9-10.6c3.2-2.6,6.8-4.1,11-4.4l0.1,0.5c-1.7,0.4-3.1,0.8-4.2,1.4c-1.2,0.5-2.2,1.2-3.1,2.1
		c-0.9,0.9-1.8,2-2.5,3.3c-0.8,1.3-1.3,2.6-1.5,3.9c0.8-0.5,1.5-0.8,2.1-1.1c1-0.4,2.1-0.7,3.2-0.8c2.1-0.2,3.9,0.3,5.5,1.5
		c1.5,1.1,2.4,2.8,2.5,5.1C270.3,408.6,269.7,410.5,268.2,412.3 M265.5,404.2c-1.1-1.9-2.7-2.8-5-2.6c-2.1,0.1-3.4,0.8-4,1.9
		c-0.4,0.6-0.5,1.7-0.4,3.1c0.1,1.9,0.7,3.6,1.8,5.3c1,1.7,2.6,2.5,4.6,2.3c1.6-0.1,2.7-0.8,3.3-2c0.6-1.2,0.9-2.6,0.8-4.1
		C266.5,406.6,266.2,405.3,265.5,404.2"/>
	<path id="XMLID_10_" class="st0" d="M280.8,410.5c1.3,0.4,2.4,0.5,3.2,0.3c1.8-0.4,3.1-1.2,3.7-2.4c0.7-1.2,0.9-2.5,0.6-3.7
		c-0.3-1.2-0.8-2.2-1.7-2.9c-1.5-1.3-3.7-1.6-6.6-1l-0.5,0.1l-0.5,0.2l-0.1-0.4c1.9-1.1,3.4-2.2,4.4-3.3c1-1.1,1.4-2.3,1.1-3.7
		c-0.3-1.2-0.9-2-2-2.5c-1.1-0.4-2.2-0.5-3.4-0.3c-1.4,0.3-2.6,1-3.5,2.2c-0.5,0.6-1,1.5-1.4,2.7l-0.6,0c0.2-1.8,0.8-3.3,2.1-4.6
		c1.2-1.3,2.7-2.2,4.6-2.6c2-0.4,3.6-0.3,4.9,0.4c1.3,0.7,2.1,1.7,2.3,2.9c0.2,1.1,0,2.2-0.7,3.3c-0.4,0.6-1.1,1.4-2,2.2
		c1.3,0.2,2.5,0.5,3.4,0.9c1.7,0.9,2.7,2.2,3.1,4c0.4,2.1-0.1,4.2-1.7,6.2c-1.6,2-4.2,3.4-7.8,4.2c-1.6,0.3-2.8,0.4-3.5,0.1
		c-0.7-0.3-1.1-0.6-1.2-1.1c-0.1-0.3,0-0.6,0.2-0.9c0.2-0.3,0.5-0.5,1-0.6C278.5,410,279.5,410.1,280.8,410.5"/>
	<path id="XMLID_11_" class="st0" d="M167.1,393.1l-0.8,1.2l-5.3-3.9l-2.3-1.5l-2.3-1.5l-0.6-0.4l0.8-1.2c1.2,0.8,2,1.3,2.5,1.3
		l0.7-0.3c0.6-0.5,1.5-1.7,2.9-3.6l2.2-3.2l1.1-1.6c1.2-1.7,1.9-2.7,2.1-3.2c0.5-0.9,0.7-1.8,0.7-2.6c0-0.8-0.4-1.7-1-2.6
		c-0.6-0.9-1.6-1.9-2.9-2.8c-1.5-1.1-2.9-1.7-4.1-1.9c-1.2-0.2-2.3-0.1-3.1,0.4c-0.9,0.4-2,1.6-3.4,3.6l-2,2.8
		c-1.7,2.4-2.7,3.9-3.1,4.5c-0.8,1.2-1.2,1.9-1.2,2.3l0.1,0.6c0.2,0.4,1,1,2.1,1.9l-0.8,1.2c-1.9-1.5-3-2.3-3.4-2.6l-0.5-0.3
		l-3.7-2.4l0.8-1.2c1,0.7,1.7,1.1,2.1,1.1l0.6-0.2c0.2-0.2,1-1,2.2-2.6c1.3-1.6,2.2-2.9,2.9-3.8l2.3-3.3c0.6-0.8,1.3-1.6,2-2.4
		c0.8-0.8,1.6-1.3,2.4-1.7c0.9-0.3,1.9-0.5,3-0.4c1.1,0,2.3,0.3,3.6,0.8c1.3,0.5,2.6,1.2,4,2.2c1.7,1.2,3.1,2.4,4.3,3.8
		c0.9,1,1.5,2,1.8,2.9c0.3,0.9,0.5,1.8,0.4,2.6c-0.1,0.8-0.2,1.5-0.5,2.1c-0.2,0.4-0.8,1.3-1.8,2.7l-1.9,2.6l-2.5,3.5
		c-0.9,1.3-1.7,2.5-2.4,3.5c-0.3,0.4-0.4,0.8-0.4,1c0,0.1,0,0.4,0.2,0.7L167.1,393.1"/>
	<path id="XMLID_12_" class="st0" d="M152.1,357.1c-1.1-1.2-1.7-1.8-1.9-2l-0.4-0.1l-0.6,0.2c-0.4,0.2-1.2,0.8-2.6,1.8
		c-0.8,0.6-1.7,1.3-2.9,2.3l-4.2,3.5l-3.7,3.2c-0.6,0.5-1,0.9-1.2,1.1l-0.2,0.6l0.2,0.7c0.1,0.3,0.6,1,1.5,2.1l-1.1,0.9
		c-1-1.4-1.8-2.4-2.3-3l-1.9-2.2l-1.3-1.4c0.6-4.1,1.1-8.9,1.6-14.5c0.4-4,0.6-7.2,0.6-9.7l-3,2.5c-4.7,3.9-7.3,6.3-8.1,7.1
		c-0.3,0.3-0.4,0.6-0.4,0.8c0,0.4,0.6,1.2,1.8,2.6l-1.1,0.9c-1-1.3-1.9-2.5-2.8-3.5c-0.8-1-1.9-2.2-3.3-3.7l1.1-0.9
		c1.1,1.2,1.8,1.9,2.1,2l0.3,0c0.6-0.2,1.6-1,3.2-2.2c1.6-1.3,2.7-2.2,3.5-2.9c5.8-4.9,9.2-7.9,10.4-9l0.3,0.1c0.6,1,1.2,2,1.8,2.9
		c-0.4,5.9-1.1,14.6-2.3,25.9l6.5-5.4c1.3-1.1,2.7-2.3,4.1-3.6c1-0.9,1.5-1.5,1.7-1.7l0.1-0.4l-0.3-0.6c-0.5-0.7-0.9-1.2-1.1-1.5
		l-0.3-0.3l1.1-0.9c1.6,2,2.5,3.1,2.7,3.4c0.8,1,2,2.3,3.6,4L152.1,357.1"/>
	<path id="XMLID_13_" class="st0" d="M104.5,330.6l1.3-0.8c0.7,1.2,1.2,1.8,1.4,2l0.4,0.4l0.4,0.1c0.2,0,0.6-0.2,1.1-0.4
		c0.3-0.1,0.7-0.4,1.4-0.8c2.4-1.4,3.7-2.2,3.9-2.3l5.9-3.5l2.6-1.7c1-0.6,1.6-1.1,1.9-1.3l0.2-0.4l-0.1-0.6
		c-0.1-0.3-0.5-0.9-1.1-2.1l1.3-0.8c1,1.9,2.2,3.9,3.5,6.1c1.1,1.8,2.1,3.5,3.1,4.9l-1.3,0.8c-0.8-1.2-1.2-1.9-1.4-2.1l-0.5-0.4
		l-0.3,0c-0.1,0-0.6,0.3-1.5,0.7c-1.2,0.7-2.3,1.3-3.3,1.9l-6.1,3.7c-1.9,1.2-3.2,1.9-3.7,2.3c-1.2,0.8-1.9,1.3-2.2,1.6l-0.2,0.3
		l0.1,0.5c0.1,0.2,0.5,1,1.2,2.2l-1.3,0.8c-0.8-1.5-1.7-3.2-2.9-5.1C107,334.3,105.7,332.4,104.5,330.6"/>
	<path id="XMLID_14_" class="st0" d="M118.2,303.6c-1.8,1.9-3.5,3.7-5.2,5.5l-4.4,4.7c-3.4,3.7-5.4,6-6.1,6.8
		c-0.6,0.8-0.9,1.3-1,1.6c0,0.4,0.2,1.2,0.6,2.4l-1.4,0.5c-1.1-3-1.7-4.9-2-5.5l-2.7-6.7l1.4-0.5c0.4,1,0.8,1.8,1,2.2l0.5,0.5l0.5,0
		c0.3-0.1,1.2-0.9,2.5-2.4c0.8-0.8,1.2-1.3,1.3-1.4l0.2-0.2l8-8.5l-10.3-0.8c-0.2,0-1.4-0.1-3.5-0.2c-1.5-0.1-2.5-0.1-3,0l-0.4,0.1
		L94,302l-0.1,0.3c0,0.1,0.1,0.3,0.2,0.7c0.3,0.8,0.5,1.5,0.7,2.1l-1.4,0.5l-1.7-4.8l-1.7-4l1.4-0.5c0.6,1.2,0.9,1.8,1.1,2
		c0.4,0.3,1.8,0.5,4.4,0.7l3.2,0.3l6.1,0.6c5.2,0.5,8.8,0.7,10.9,0.8L118.2,303.6"/>
	<path id="XMLID_15_" class="st0" d="M111.6,285.2l-0.9,0.2c-0.5-0.7-0.9-1.3-1.3-1.7c-0.5,0-1.3,0.1-2.3,0.2
		c-1.9,0.2-3.3,0.4-4.2,0.6l-7.5,1.3c-0.3,0.1-1.4,0.3-3.2,0.7c-1.2,0.3-2,0.5-2.3,0.7l-0.2,0.3c-0.1,0.4,0,1.3,0.2,2.9l-1.3,0.2
		l-0.9-4.5c-0.2-0.9-0.3-1.8-0.5-2.6c-0.3-1.8-0.7-3.8-1.1-6l-0.8-4c-0.1-0.5-0.2-1.4-0.4-2.9c0-0.1,0-0.4,0.1-0.7l0.2-0.2l2.5,0
		c0.2,0,1-0.1,2.5-0.2l0.3,1.5c-1.3,0.3-2.1,0.4-2.3,0.6l-0.3,0.3c-0.1,0.2-0.1,0.7,0,1.6c0.1,1.3,0.3,2.6,0.5,3.8
		c0.2,1.2,0.5,2.3,0.8,3.5c1.3,0,2.9-0.2,4.8-0.5l3.4-0.6c-0.1-0.9-0.2-1.8-0.3-2.8c-0.1-0.3-0.3-1.4-0.6-3.2
		c-0.1-0.7-0.2-1.1-0.3-1.2l-0.4-0.2c-0.5-0.1-1.2,0-2.2,0.1l-0.3-1.6l3.7-0.6l3.7-0.7l0.3,1.6c-1.3,0.2-2.1,0.5-2.3,0.7
		c-0.2,0.2-0.3,0.5-0.3,0.9c0,0.9,0.2,2.1,0.4,3.5c0.2,1.3,0.5,2.3,0.7,3.1l7-1.2c0.8-0.1,1.5-0.3,2-0.4c-0.1-1.1-0.3-2.3-0.5-3.8
		c-0.3-1.4-0.5-2.7-0.8-3.9c-0.3-1.2-0.5-1.9-0.7-2.1l-0.4-0.2c-0.6-0.1-1.7-0.2-3.3-0.2l-0.3-1.6c2.3-0.1,4.1-0.3,5.5-0.5l0.3,0.2
		c0.3,0.8,0.5,2,0.8,3.6l0.5,3.2c0.5,3.1,0.9,5.3,1.1,6.5C110.3,278.9,110.7,281.1,111.6,285.2"/>
	<path id="XMLID_16_" class="st0" d="M85.3,261.2h-1.5c0-0.3,0-1.4,0.1-3.2c0-0.9,0.1-2.2,0.1-3.8c0-1.4,0-2.6-0.1-3.6
		c-0.1-1.7-0.1-3-0.1-4.1c0-2.1,0.1-3.7,0.4-4.7c0.3-1,0.8-1.9,1.6-2.7c0.8-0.7,1.8-1.1,2.9-1.1c1.4,0,2.6,0.5,3.7,1.5
		c1.1,1,2,2.6,2.7,4.7c0.5-0.3,1-0.7,1.6-1.1c0.5-0.4,0.9-0.7,1-0.8l0.3-0.2l3.9-3.1c1.1-0.8,1.6-1.3,1.7-1.3c1.1-1,1.8-1.6,2-1.9
		l0.4-0.7c0.1-0.2,0.1-0.6,0.1-1.3h1.5c-0.1,2.1-0.2,3.6-0.2,4.5c0,1.1,0.1,2.1,0.2,3.2c-0.2,0.1-0.6,0.2-1,0.5l-6,4.3
		c-1.7,1.2-3.1,2.3-4.1,3.1c-0.5,0.4-0.9,0.8-1.1,1.2l-0.6-0.2c0-1.6-0.1-2.8-0.4-3.7c-0.3-0.8-0.9-1.5-1.7-2.1
		c-0.8-0.6-1.8-0.9-2.8-0.9c-1,0-1.9,0.3-2.6,0.9c-0.7,0.6-1.2,1.3-1.4,2.2c-0.2,0.6-0.3,1.6-0.3,3c0,0.7,0,1.3,0.1,1.9
		c0.4,0,1.3,0.1,2.7,0.1c3.2,0.1,5.4,0.1,6.5,0.1c1.7,0,3.5,0,5.4,0c2.3,0,3.7,0,4-0.1c0.6,0,1-0.1,1.2-0.2l0.2-0.3l0.2-0.6
		c0-0.3,0.1-1,0.1-2.3h1.5c-0.1,2.3-0.2,4.6-0.2,6.9c0,2,0.1,3.9,0.2,5.7h-1.5c0-1.5-0.1-2.4-0.2-2.7l-0.2-0.3l-0.5-0.2
		c-0.4-0.1-1.1-0.2-2-0.2l-5-0.1H92l-3.6,0.1c-1.4,0-2.3,0.1-2.5,0.2l-0.3,0.3C85.5,258.6,85.4,259.5,85.3,261.2"/>
	<path id="XMLID_17_" class="st0" d="M95.1,209.1l-0.4,1.7c-1.3-0.2-2.2-0.4-2.7-0.4c-0.6,0.3-1.1,0.9-1.7,1.8c-0.6,0.9-1,2-1.3,3.2
		c-0.4,1.8-0.3,3.2,0.3,4.4c0.5,1.1,1.3,1.8,2.3,2c0.7,0.1,1.4,0.1,1.9-0.1c0.5-0.2,1-0.5,1.3-1c0.4-0.5,0.8-1.2,1.2-2.1
		c0.3-0.7,0.7-1.8,1.2-3.1c0.5-1.3,0.8-2.2,1-2.6c0.5-1,0.9-1.8,1.4-2.4c0.5-0.6,1-1,1.5-1.3c0.5-0.3,1.1-0.5,1.8-0.6
		c0.7-0.1,1.5-0.1,2.3,0.1c1.4,0.3,2.6,0.9,3.5,1.8c0.7,0.7,1.3,1.6,1.7,2.7c0.5,1.1,0.8,2.1,0.9,3.2c0.2,1.7,0.1,3.6-0.4,5.9
		c-0.3,1.6-0.8,3-1.3,4.2c-0.5,1.2-1.3,2.5-2.2,3.9c-1.2-0.7-3.1-1.3-5.6-1.8l0.4-1.7c0.8,0.2,1.8,0.3,3,0.4
		c0.8-0.4,1.6-1.1,2.3-2.2c0.8-1.1,1.3-2.4,1.6-3.8c0.3-1.2,0.3-2.4,0.2-3.5c-0.2-1.1-0.5-1.9-1.1-2.4c-0.6-0.6-1.3-1-2.1-1.1
		c-0.7-0.1-1.3-0.1-1.9,0.1c-0.6,0.2-1.1,0.6-1.5,1.2c-0.4,0.6-1,1.7-1.7,3.3c-0.9,2.3-1.6,3.8-1.9,4.5c-0.5,1.1-1.1,1.9-1.8,2.5
		c-0.7,0.6-1.5,1-2.3,1.1c-0.8,0.2-1.7,0.2-2.6,0c-1.2-0.3-2.3-0.8-3.2-1.7s-1.5-1.8-1.9-3c-0.4-1.1-0.5-2.4-0.5-3.7
		c0-1.3,0.2-2.7,0.5-4c0.3-1.4,0.7-2.7,1.2-4c0.5-1.3,1-2.3,1.6-3.2l0.4-0.1c0.7,0.3,1.4,0.6,2,0.9C93.1,208.6,94,208.9,95.1,209.1"
		/>
	<path id="XMLID_18_" class="st0" d="M96.2,186.7l1.4,0.5c-0.4,1.3-0.7,2.1-0.7,2.3l0,0.6l0.2,0.3c0.1,0.2,0.5,0.3,1,0.6
		c0.3,0.1,0.8,0.3,1.6,0.6c2.6,1,4,1.5,4.2,1.6l6.4,2.3l3,1c1.1,0.4,1.8,0.6,2.2,0.6l0.4-0.1l0.4-0.5c0.1-0.2,0.4-1,0.9-2.2l1.4,0.5
		c-0.8,2-1.7,4.2-2.5,6.5c-0.7,2-1.3,3.8-1.8,5.5l-1.4-0.5c0.4-1.4,0.7-2.1,0.7-2.4l0-0.6l-0.2-0.3c-0.1-0.1-0.6-0.3-1.4-0.7
		c-1.3-0.5-2.4-1-3.5-1.4l-6.7-2.4c-2.1-0.8-3.5-1.2-4.1-1.4c-1.4-0.4-2.3-0.7-2.6-0.7l-0.4,0.1l-0.3,0.4c-0.1,0.2-0.5,1-1,2.3
		l-1.4-0.5c0.7-1.5,1.4-3.3,2.1-5.4C94.8,191,95.5,188.8,96.2,186.7"/>
	<path id="XMLID_19_" class="st0" d="M121.9,187l-1.3-0.7c0.8-1.5,1.2-2.4,1.2-2.7c0-0.3-0.1-0.6-0.3-0.9c-0.3-0.4-1.6-1.1-3.7-2.3
		l-8.8-5.1c-2.4-1.4-3.8-2.1-4.1-2.3l-1.4,2.4c-0.7,1.2-1.3,2.3-1.8,3.3c-0.2,0.4-0.3,0.6-0.3,0.7l0.4,0.5c0.6,0.6,1.3,1.1,2.2,1.6
		l-0.9,1.5c-2.1-1.1-3.2-1.7-3.5-1.9c-0.5-0.2-1-0.4-1.5-0.6l-0.1-0.2c0.4-0.5,0.7-1.1,1.1-1.7c0.6-1,1.7-2.9,3.4-5.7l4.1-7
		c1.7-2.9,2.8-4.9,3.3-5.9c0.3-0.5,0.6-1.1,0.8-1.7l0.2-0.1c0.5,0.5,1,0.8,1.5,1.1c0.1,0.1,1.1,0.7,3.2,1.9l-0.9,1.5
		c-0.8-0.4-1.6-0.8-2.4-1.1c-0.4-0.1-0.7-0.2-0.8-0.1l-0.4,0.5c-0.6,0.9-1.3,2-2.1,3.3L108,168c0.3,0.2,1.7,1,4,2.4l8.8,5.1
		c2.1,1.2,3.4,1.9,3.9,2c0.3,0.1,0.6,0,0.9-0.2c0.3-0.2,0.8-1,1.7-2.4l1.3,0.7c-1.4,2.2-2.5,4.1-3.4,5.6
		C124.2,182.9,123.1,184.8,121.9,187"/>
	<path id="XMLID_20_" class="st0" d="M132.3,149.2l-1.2-4.1c-0.2-0.7-0.9-2.9-2.1-6.5c-0.4-1.2-0.7-2-0.8-2.4l2-2.5l0.6,0.5
		c0.4,2.4,1.1,5.2,1.9,8.2c0.8,3,1.3,4.9,1.6,5.7c0.2,0.5,0.4,1,0.6,1.2c0.2,0.2,0.5,0.5,1,0.8l2.3,1.8c1.2,0.8,2,1.4,2.6,1.8
		c0.6,0.3,0.9,0.5,1.1,0.5l0.6-0.3c0.2-0.2,0.8-0.8,1.7-2l1.2,0.9c-1.6,1.9-3.1,3.7-4.4,5.3c-1.2,1.6-2.4,3.2-3.6,4.9l-1.2-0.9
		c0.9-1.2,1.4-2,1.5-2.2l0.1-0.6c0-0.2-0.3-0.4-0.7-0.8c-1-0.8-1.8-1.5-2.6-2.1l-2.5-2c-0.2-0.2-0.8-0.3-1.7-0.4
		c-2.3-0.2-4.7-0.3-7-0.4c-1.9,0-3.6,0.1-4.9,0.3c-0.9,0.2-1.5,0.3-1.8,0.4c-0.2,0.1-0.6,0.5-1.2,1.3l-1-0.8l2.1-3.8
		c0.3-0.7,0.7-1.3,1-2c0.8-0.4,1.4-0.7,1.9-0.8c0.5-0.1,1.2-0.2,2.3-0.2c1.6,0,3.3,0.1,5.1,0.3C129.8,148.8,131.6,149.1,132.3,149.2
		"/>
	<path id="XMLID_23_" class="st0" d="M152.2,130.6c-1.2-1.7-1.9-3.4-2.2-5.1c-0.3-1.7-0.2-3.4,0.4-5c0.5-1.7,1.3-3.2,2.3-4.5
		c1.4-1.7,3-3.2,5-4.6c2-1.4,4-2.4,5.9-3.1c1.5-0.5,2.9-0.7,4.3-0.7c1.4,0,2.6,0.2,3.6,0.6c1,0.4,1.9,0.9,2.7,1.6
		c0.8,0.7,1.6,1.5,2.3,2.6c1.2,1.7,2,3.6,2.3,5.6c0.3,1.5,0.2,3-0.2,4.6c-0.4,1.6-1.1,3-2.1,4.4c-1.3,1.9-3.2,3.6-5.4,5.2
		c-2.5,1.7-4.9,2.8-7.1,3.3c-2.3,0.5-4.5,0.3-6.5-0.4C155.5,134.2,153.7,132.7,152.2,130.6 M156.7,126.2c1.5,2.2,3.1,3.7,4.8,4.6
		c1.7,0.9,3.3,1.3,4.8,1.1c1.5-0.2,3-0.8,4.5-1.8c1.4-1,2.4-2.1,3.1-3.4c0.7-1.3,0.9-2.8,0.6-4.6c-0.3-1.8-1.1-3.6-2.4-5.5
		c-0.9-1.3-1.9-2.4-3-3.2c-1.1-0.8-2.2-1.4-3.4-1.7c-1.1-0.3-2.3-0.4-3.4-0.2c-1.1,0.2-2.4,0.8-3.8,1.8c-1.6,1.1-2.7,2.4-3.4,3.8
		c-0.7,1.4-0.8,2.9-0.5,4.5C154.9,123.1,155.6,124.7,156.7,126.2"/>
	<path id="XMLID_24_" class="st0" d="M200.8,107.4l-1.7,0.7c-0.6-1.3-1-2.1-1.3-2.3c-0.1-0.1-0.4-0.1-0.8,0c-1,0.2-2.4,0.7-4.4,1.5
		c-0.3,0.1-0.8,0.3-1.5,0.6l0.7,1.7c1,2.5,1.7,4.2,2.2,5.2c0.5,1,0.8,1.5,1,1.6l0.6,0.1c0.2,0,1.2-0.3,3-0.9l0.5,1.2l-7.4,2.8
		c-1.1,0.4-2.7,1.1-5,2.2l-0.6-1.4c1.5-0.6,2.3-1,2.5-1.2l0.2-0.3c0.1-0.2,0-0.5-0.1-0.9c-0.1-0.3-0.3-1-0.8-2.3
		c-0.5-1.3-0.8-2.2-1.1-2.7l-2.6-6.5c-0.1-0.1-0.7-1.6-1.8-4.4c-0.4-0.8-0.7-1.3-0.9-1.6l-0.3-0.2c-0.1,0-0.3,0-0.6,0
		c-0.3,0.1-1.1,0.3-2.3,0.7l-0.6-1.4l6.6-2.5l8.8-3.7c1.2-0.5,2.4-0.9,3.6-1.3l0.3,0.1c0.1,0.7,0.3,1.4,0.6,2.4
		c0.3,1,0.5,1.8,0.8,2.5l-1.5,0.6c-0.1-0.2-0.3-0.8-0.8-1.6c-0.2-0.4-0.3-0.7-0.4-0.8l-0.2-0.1c-0.3,0-0.8,0.1-1.7,0.3
		c-0.8,0.2-1.8,0.5-2.9,1c-0.2,0.1-0.8,0.3-1.7,0.8c-0.9,0.4-1.6,0.7-1.9,0.9c0.3,1.1,0.9,3,2,5.7l0.9,2.2c1.6-0.6,2.7-0.9,3.2-1.2
		c1.6-0.6,2.6-1.1,2.9-1.4l0.2-0.5c0-0.3-0.2-0.9-0.5-1.9l1.7-0.7C198.7,102.4,199.6,104.7,200.8,107.4"/>
	<path id="XMLID_25_" class="st0" d="M244.8,104.1l-0.7,1.8c-1.6,0.9-3,1.6-4.3,2.1c-1.3,0.4-2.9,0.8-4.9,1
		c-2.8,0.3-5.3,0.3-7.6-0.2c-1.8-0.4-3.3-1-4.6-1.9c-1.3-0.8-2.3-1.8-3.1-2.9c-1.2-1.6-1.9-3.5-2.2-5.6c-0.4-3.5,0.6-6.6,3.2-9.2
		c2.6-2.6,6.5-4.2,11.7-4.8c1.8-0.2,3.4-0.3,4.9-0.3c1.5,0,3.2,0.2,5.1,0.6l0.1,0.2c-0.1,0.5-0.2,1.2-0.2,2c0,1.3,0,2.4,0.1,3.5
		l-1.6,0.2c-0.2-1.2-0.3-2.2-0.5-2.9c-1-0.7-2.1-1.1-3.2-1.4c-1.2-0.2-2.6-0.3-4.3-0.1c-3.1,0.4-5.5,1.5-7.2,3.4
		c-1.7,1.9-2.3,4.3-1.9,7.3c0.2,1.8,0.7,3.3,1.5,4.6c0.8,1.3,1.8,2.3,2.9,3c1.2,0.8,2.3,1.3,3.4,1.5c1.5,0.4,3.3,0.4,5.3,0.2
		c1.4-0.2,2.6-0.5,3.8-0.9c1.2-0.4,2.4-1,3.8-1.8L244.8,104.1"/>
	<path id="XMLID_26_" class="st0" d="M248.7,107.3l0-0.9c0.8-0.3,1.5-0.6,2-0.9c0.1-0.5,0.2-1.2,0.3-2.3c0.2-1.9,0.3-3.3,0.4-4.2
		l0.4-7.6c0-0.3,0-1.4,0.1-3.3c0-1.3,0-2.1-0.2-2.4l-0.3-0.3c-0.3-0.2-1.3-0.3-2.8-0.5l0.1-1.3l4.6,0.1c0.9,0,1.8,0.1,2.6,0.1
		c1.8,0.1,3.8,0.2,6.1,0.3l4.1,0.1c0.5,0,1.4,0.1,2.9,0.2c0.1,0,0.4,0.1,0.6,0.3l0.1,0.2l-0.5,2.4c0,0.2-0.1,1-0.3,2.4l-1.5-0.1
		c0-1.3,0-2.1-0.1-2.4l-0.2-0.3c-0.2-0.1-0.7-0.2-1.6-0.3c-1.3-0.2-2.6-0.3-3.8-0.4c-1.2-0.1-2.4-0.1-3.6,0
		c-0.3,1.2-0.5,2.8-0.6,4.8l-0.2,3.4c0.9,0.2,1.8,0.3,2.8,0.3c0.3,0,1.4,0.1,3.3,0.1c0.7,0,1.1,0,1.3-0.1l0.3-0.3
		c0.2-0.4,0.3-1.1,0.4-2.2l1.6,0.1l-0.3,3.7l-0.1,3.7l-1.6-0.1c0.1-1.3,0-2.1-0.2-2.4c-0.1-0.2-0.4-0.4-0.8-0.5
		c-0.9-0.2-2.1-0.3-3.5-0.4c-1.3-0.1-2.4-0.1-3.2,0l-0.4,7.1c0,0.8-0.1,1.5,0,2c1.1,0.2,2.3,0.3,3.8,0.4c1.4,0.1,2.8,0.1,4,0.1
		c1.2,0,2-0.1,2.3-0.2l0.3-0.3c0.3-0.5,0.6-1.6,0.9-3.1l1.6,0.1c-0.4,2.2-0.7,4.1-0.7,5.5l-0.3,0.2c-0.9,0.1-2.1,0-3.6,0l-3.2-0.2
		c-3.2-0.2-5.4-0.4-6.6-0.4C255,107.5,252.8,107.4,248.7,107.3"/>
	<path id="XMLID_27_" class="st0" d="M273.3,107.1c1.5,0.4,2.4,0.6,2.7,0.6l0.4-0.1l0.4-0.5c0.2-0.4,0.6-1.4,1.1-2.9
		c0.3-0.9,0.7-2,1.1-3.5l1.5-5.2l1.3-4.8c0.2-0.8,0.3-1.3,0.3-1.6l-0.1-0.6l-0.5-0.4c-0.3-0.1-1.1-0.5-2.4-0.9l0.4-1.4
		c1.6,0.6,2.8,1,3.6,1.2l2.8,0.7l1.8,0.4c1.8,3.7,4.1,8,6.7,12.9c1.9,3.5,3.6,6.3,4.9,8.4l1.2-3.7c1.7-5.8,2.6-9.3,2.7-10.4
		c0.1-0.4,0-0.7-0.1-0.9c-0.2-0.3-1.2-0.7-2.9-1.2l0.4-1.4c1.5,0.5,3,1,4.3,1.4c1.2,0.4,2.8,0.8,4.8,1.2l-0.4,1.4
		c-1.6-0.4-2.5-0.6-2.9-0.5l-0.3,0.2c-0.3,0.5-0.8,1.7-1.4,3.7c-0.6,1.9-1,3.4-1.3,4.3c-2.1,7.3-3.3,11.7-3.6,13.3l-0.3,0.1
		c-1-0.5-2.1-1-3.1-1.5c-3-5.1-7.2-12.7-12.6-22.8l-2.3,8.1c-0.5,1.7-0.9,3.5-1.4,5.3c-0.3,1.3-0.5,2.1-0.4,2.4l0.2,0.4
		c0.1,0.1,0.3,0.2,0.6,0.4c0.8,0.3,1.4,0.5,1.8,0.7l0.4,0.1l-0.4,1.3c-2.4-0.8-3.8-1.2-4.2-1.3c-1.3-0.4-3-0.8-5.2-1.3L273.3,107.1"
		/>
	<path id="XMLID_28_" class="st0" d="M310.8,121l0.7-1.3c1.5,0.7,2.4,1.1,2.7,1.1c0.3,0,0.6-0.1,0.9-0.3c0.4-0.4,1.1-1.6,2.2-3.8
		l4.8-9c1.3-2.4,2-3.8,2.1-4.1l-2.5-1.3c-1.3-0.7-2.4-1.2-3.4-1.7c-0.4-0.2-0.6-0.3-0.7-0.2l-0.5,0.4c-0.5,0.6-1,1.4-1.5,2.3
		l-1.6-0.8c1-2.1,1.6-3.3,1.8-3.5c0.2-0.5,0.4-1,0.6-1.5l0.2-0.1c0.5,0.3,1.1,0.7,1.7,1c1,0.6,3,1.6,5.8,3.2l7.2,3.8
		c3,1.6,5,2.6,6,3.1c0.6,0.3,1.1,0.5,1.7,0.8l0.1,0.2c-0.4,0.6-0.8,1.1-1.1,1.5c-0.1,0.1-0.7,1.2-1.8,3.3l-1.6-0.8
		c0.4-0.8,0.7-1.6,1-2.4c0.1-0.4,0.2-0.7,0.1-0.8c0-0.1-0.2-0.2-0.5-0.4c-0.9-0.6-2-1.2-3.4-2l-2.5-1.3c-0.2,0.3-1,1.7-2.2,4.1
		l-4.8,9c-1.1,2.2-1.8,3.5-1.9,4c-0.1,0.3,0,0.6,0.2,0.9c0.2,0.3,1,0.8,2.4,1.6l-0.7,1.3c-2.3-1.3-4.2-2.4-5.8-3.2
		C315,123.1,313,122.1,310.8,121"/>
	<path id="XMLID_29_" class="st0" d="M344,114.2l0.9-1.1c0.2,0.2,1,0.9,2.4,2.1c0.7,0.6,1.7,1.4,2.9,2.4c1.1,0.9,2,1.6,2.9,2.2
		c1.3,1,2.4,1.8,3.3,2.5c1.6,1.3,2.8,2.4,3.4,3.3c0.7,0.9,1,1.8,1.1,2.9c0.1,1.1-0.3,2.1-1,3c-0.9,1.1-2,1.7-3.5,2
		c-1.5,0.2-3.3-0.1-5.3-0.9c-0.1,0.6-0.1,1.3-0.1,1.9c0,0.7,0,1.1,0,1.2l0,0.4l-0.1,5c0,1.3,0,2.1,0,2.2c0.1,1.5,0.1,2.4,0.2,2.7
		c0.1,0.3,0.1,0.6,0.3,0.7c0.1,0.2,0.4,0.5,0.9,0.9l-0.9,1.1c-1.5-1.4-2.7-2.4-3.4-2.9c-0.8-0.7-1.7-1.3-2.6-1.9
		c0.1-0.2,0.2-0.6,0.2-1.1l0.4-7.4c0.1-2.1,0.2-3.8,0.1-5.1c0-0.7-0.1-1.2-0.3-1.7l0.5-0.3c1.2,1.1,2.3,1.7,3.1,2
		c0.8,0.3,1.8,0.3,2.7,0c1-0.3,1.8-0.8,2.4-1.6c0.7-0.8,1-1.7,0.9-2.6c0-0.9-0.3-1.8-0.8-2.5c-0.3-0.5-1.1-1.2-2.2-2.1
		c-0.5-0.4-1-0.8-1.6-1.1c-0.3,0.3-0.9,1-1.8,2.1c-2.1,2.4-3.5,4.1-4.1,4.9c-1.1,1.3-2.2,2.7-3.4,4.2c-1.5,1.8-2.3,2.9-2.5,3.1
		c-0.4,0.5-0.6,0.9-0.6,1.1l0,0.4l0.3,0.5c0.2,0.2,0.8,0.7,1.7,1.5l-0.9,1.1c-1.7-1.5-3.5-3-5.2-4.4c-1.6-1.3-3.1-2.4-4.5-3.5
		l0.9-1.1c1.2,0.9,1.9,1.4,2.2,1.6l0.4,0.1l0.4-0.3c0.3-0.3,0.8-0.8,1.4-1.4l3.2-3.8l4-4.9l2.2-2.8c0.9-1.1,1.3-1.8,1.4-2.1l0-0.4
		C345.9,116,345.2,115.3,344,114.2"/>
	<path id="XMLID_32_" class="st0" d="M352.7,149.8l1.2-0.9c0.7,0.8,1.1,1.3,1.3,1.4l0.5,0.3l0.7,0.1c0.3,0,1.2-0.2,2.9-0.5
		c0.8-0.1,2.3-0.4,4.5-0.9l11.9-2.4l4.1-0.9l1.7,2.3l-8.8,17.8l-1.1,2.4l-0.8,1.6l-0.1,0.6l0.1,0.5c0.1,0.1,0.3,0.5,0.6,1
		c0.1,0.2,0.3,0.4,0.5,0.8l-1.2,0.9l-3.2-4.5l-4.3-5.5l1.2-0.9c1,1.3,1.6,1.9,1.8,2.1l0.6,0c0.2-0.2,0.5-0.6,0.8-1.2l1.9-3.6
		l-6.3-8.4l-2.1,0.5c-1.6,0.4-2.6,0.7-2.9,0.9l-0.3,0.6c0.1,0.4,0.6,1.2,1.5,2.5l-1.2,0.9l-2.7-3.8L352.7,149.8z M365.5,151.3
		c0.7,1,1.6,2.2,2.5,3.5c0.9,1.2,1.8,2.3,2.6,3.3l4.4-8.7L365.5,151.3"/>
	<path id="XMLID_33_" class="st0" d="M372.7,177.1l0.8-0.4c0.3,0.3,0.7,0.6,1.3,1l0.6,0.3l0.2,0c0.3-0.1,1.2-0.5,2.8-1.3
		c1.6-0.8,3.4-1.7,5.6-2.8c3.2-1.6,5.2-2.6,5.9-3c1.9-1,2.9-1.6,3.1-1.9l0.1-0.4c0-0.4-0.4-1.3-1.1-2.9l1.3-0.7
		c0.7,1.6,1.5,3.3,2.5,5.3c1.1,2.2,2.2,4.2,3.3,6.1l-1.3,0.7c-0.8-1.4-1.3-2.1-1.6-2.4l-0.4-0.1c-0.2,0-0.8,0.3-1.9,0.8
		c-1.1,0.5-2.5,1.2-4.2,2.1c-0.2,0.1-1.6,0.8-4.4,2.2c-1.4,0.8-2.9,1.5-4.3,2.2c-1.4,0.7-2.3,1.2-2.6,1.3c0.7,1.7,1.2,2.8,1.5,3.4
		c0.9,1.8,1.8,3.3,2.6,4.5c0.3,0.4,0.5,0.7,0.6,0.8c0.1,0.1,0.4,0.1,0.7,0c0.9-0.2,1.9-0.4,3-0.7l0.8,1.6c-0.3,0.1-0.5,0.2-0.5,0.2
		l-3.3,1.1c-1,0.4-1.6,0.6-1.8,0.7c-0.3-0.3-0.5-0.6-0.7-0.9c-0.4-0.7-1-1.8-1.8-3.3c-0.1-0.2-0.8-1.6-2-4.2c-1-2-1.6-3.3-2-4.1
		C374.9,181.2,374,179.4,372.7,177.1"/>
	<path id="XMLID_34_" class="st0" d="M398.5,223.4l-0.4-1.7c1.4-0.4,2.2-0.7,2.4-0.9c0.1-0.1,0.2-0.4,0.2-0.8
		c-0.1-1-0.3-2.5-0.8-4.5c-0.1-0.3-0.2-0.8-0.4-1.5l-1.8,0.4c-2.6,0.6-4.4,1.1-5.5,1.4c-1,0.3-1.6,0.6-1.8,0.7l-0.2,0.6
		c0,0.2,0.1,1.3,0.4,3.1l-1.3,0.3l-1.6-7.7c-0.3-1.1-0.7-2.9-1.4-5.2l1.4-0.3c0.4,1.5,0.6,2.4,0.8,2.6l0.3,0.3
		c0.2,0.1,0.5,0.1,0.9,0.1c0.3,0,1.1-0.2,2.4-0.5c1.3-0.3,2.3-0.5,2.9-0.6l6.8-1.6c0.2,0,1.7-0.4,4.6-1.1c0.8-0.2,1.4-0.4,1.7-0.6
		l0.2-0.3c0-0.1,0.1-0.3,0-0.6c0-0.3-0.1-1.1-0.4-2.4l1.4-0.3l1.4,6.9l2.3,9.3c0.3,1.3,0.5,2.6,0.7,3.8l-0.2,0.2
		c-0.7,0-1.5,0.1-2.5,0.2c-1,0.1-1.8,0.3-2.6,0.4l-0.4-1.6c0.3-0.1,0.8-0.2,1.7-0.5c0.5-0.1,0.7-0.2,0.8-0.3l0.1-0.2
		c0.1-0.3,0.1-0.8,0-1.7c-0.1-0.9-0.2-1.9-0.5-3c-0.1-0.2-0.2-0.8-0.5-1.8c-0.3-1-0.5-1.7-0.6-2c-1.1,0.1-3.1,0.5-5.9,1.1l-2.3,0.5
		c0.3,1.7,0.5,2.8,0.7,3.3c0.4,1.7,0.7,2.7,0.9,3.1l0.5,0.3c0.3,0.1,1,0,2-0.2l0.4,1.7C403.8,222.2,401.4,222.7,398.5,223.4"/>
	<path id="XMLID_35_" class="st0" d="M391.4,231.3l0.9-0.1c0.1,0.3,0.4,0.8,0.8,1.4l0.4,0.5l0.2,0.1c0.3,0,1.3,0,3-0.1
		c1.7-0.1,3.8-0.2,6.2-0.4c3.6-0.3,5.8-0.4,6.6-0.5c2.1-0.2,3.3-0.3,3.6-0.5l0.3-0.3c0.1-0.3,0.2-1.4,0.1-3.1l1.5-0.1
		c0,1.7,0.1,3.6,0.3,5.8c0.2,2.4,0.4,4.7,0.6,6.9l-1.5,0.1c-0.2-1.5-0.3-2.5-0.5-2.8l-0.4-0.3c-0.2-0.1-0.9-0.1-2.1,0
		c-1.2,0.1-2.8,0.1-4.7,0.3c-0.2,0-1.8,0.1-4.9,0.4c-1.6,0.1-3.2,0.3-4.8,0.4c-1.6,0.1-2.5,0.2-2.9,0.2c0,1.8,0.1,3,0.1,3.7
		c0.1,2,0.4,3.7,0.7,5.2c0.1,0.5,0.2,0.8,0.3,0.9c0.1,0.1,0.3,0.2,0.7,0.3c0.9,0.2,1.9,0.4,3,0.6l0.1,1.8c-0.3,0-0.5,0-0.6,0
		l-3.4-0.3c-1.1,0-1.7-0.1-1.9-0.1c-0.1-0.4-0.2-0.8-0.3-1.1c-0.1-0.8-0.2-2.1-0.4-3.8c0-0.2-0.1-1.8-0.2-4.7
		c-0.1-2.2-0.2-3.7-0.3-4.6C391.9,235.9,391.7,233.9,391.4,231.3"/>
	<path id="XMLID_38_" class="st0" d="M404.3,257.1c2.1,0.2,3.8,0.8,5.2,1.8c1.4,0.9,2.6,2.1,3.5,3.6c0.9,1.5,1.5,3.1,1.8,4.7
		c0.3,2.1,0.4,4.4,0.1,6.8c-0.3,2.4-0.9,4.6-1.7,6.5c-0.6,1.4-1.4,2.6-2.4,3.6c-1,1-1.9,1.8-2.8,2.3c-0.9,0.5-1.9,0.8-3,1
		c-1.1,0.2-2.2,0.2-3.5,0c-2.1-0.3-4-0.9-5.7-2c-1.3-0.8-2.3-1.9-3.2-3.2c-0.9-1.4-1.5-2.9-1.9-4.5c-0.5-2.2-0.6-4.7-0.2-7.5
		c0.4-3,1.1-5.5,2.3-7.5c1.2-2,2.7-3.6,4.7-4.6C399.3,257.1,401.6,256.7,404.3,257.1 M404.5,263.4c-2.6-0.3-4.8-0.2-6.6,0.5
		c-1.8,0.6-3.2,1.6-4,2.8c-0.9,1.2-1.4,2.8-1.6,4.6c-0.2,1.7-0.1,3.2,0.5,4.6c0.5,1.4,1.5,2.6,3,3.5c1.5,0.9,3.4,1.6,5.7,1.8
		c1.6,0.2,3,0.2,4.4-0.1c1.3-0.2,2.5-0.7,3.5-1.3c1-0.6,1.8-1.4,2.4-2.4c0.6-1,1-2.3,1.2-4c0.2-1.9,0.1-3.6-0.5-5.1
		c-0.6-1.4-1.6-2.6-3-3.4C408,264.1,406.4,263.6,404.5,263.4"/>
	<path id="XMLID_39_" class="st0" d="M408.3,296.6l1.4,0.5c-0.1,0.3-0.5,1.3-1.2,3c-0.3,0.8-0.8,2-1.4,3.6c-0.5,1.3-0.9,2.5-1.1,3.4
		c-0.5,1.6-0.9,2.9-1.3,3.9c-0.7,2-1.4,3.4-2,4.3c-0.6,0.9-1.4,1.5-2.4,2c-1,0.4-2.1,0.4-3.1,0c-1.3-0.5-2.3-1.4-3-2.7
		c-0.7-1.3-1-3.1-0.9-5.3c-0.6,0.1-1.2,0.3-1.9,0.5c-0.6,0.2-1,0.3-1.2,0.4l-0.4,0.1l-4.8,1.6c-1.3,0.4-2,0.7-2.1,0.7
		c-1.4,0.6-2.2,0.9-2.5,1.1l-0.6,0.5c-0.1,0.2-0.3,0.6-0.6,1.1l-1.4-0.5c0.8-1.9,1.4-3.3,1.7-4.2c0.4-1,0.7-2,0.9-3.1
		c0.3,0,0.6,0,1.1-0.1l7.1-2c2-0.6,3.7-1.1,4.9-1.6c0.6-0.2,1.1-0.5,1.5-0.8l0.5,0.4c-0.6,1.5-0.9,2.7-0.9,3.6
		c0,0.9,0.3,1.7,0.9,2.6c0.6,0.8,1.4,1.4,2.3,1.8c1,0.4,1.9,0.4,2.7,0.1c0.9-0.3,1.6-0.9,2.1-1.6c0.4-0.5,0.8-1.4,1.3-2.8
		c0.2-0.6,0.4-1.2,0.5-1.9c-0.4-0.2-1.2-0.5-2.5-1c-3-1.2-5-1.9-6-2.3c-1.6-0.6-3.3-1.2-5.1-1.8c-2.2-0.8-3.5-1.2-3.8-1.3
		c-0.6-0.2-1-0.3-1.2-0.2l-0.3,0.2l-0.4,0.5c-0.1,0.2-0.4,1-0.9,2.2l-1.4-0.5c0.9-2.1,1.7-4.2,2.5-6.4c0.7-1.9,1.3-3.7,1.8-5.4
		l1.4,0.5c-0.5,1.4-0.7,2.3-0.7,2.6l0,0.4l0.4,0.3c0.4,0.2,1,0.5,1.8,0.9l4.6,1.8l5.9,2.2l3.4,1.1c1.3,0.5,2.2,0.7,2.5,0.7l0.4-0.2
		C407.2,298.9,407.6,298.1,408.3,296.6"/>
	<path id="XMLID_40_" class="st0" d="M390.2,339.5l-1.3-0.7c0.7-1.2,1-1.9,1.1-2.2l0.1-0.6l-0.1-0.3c-0.1-0.2-0.4-0.4-0.9-0.7
		c-0.3-0.2-0.7-0.4-1.4-0.9c-2.4-1.4-3.7-2.2-3.9-2.3l-5.9-3.4l-2.7-1.5c-1-0.6-1.7-0.9-2.1-1l-0.5,0l-0.5,0.4
		c-0.2,0.2-0.6,0.9-1.3,2l-1.3-0.7c1.2-1.8,2.4-3.8,3.6-6c1.1-1.9,2-3.6,2.7-5.1l1.3,0.7c-0.7,1.3-1.1,2-1.1,2.2l-0.1,0.6l0.1,0.3
		c0.1,0.1,0.5,0.4,1.3,0.9c1.2,0.7,2.2,1.4,3.2,2l6.2,3.6c2,1.1,3.2,1.8,3.8,2.1c1.3,0.7,2.1,1,2.5,1.1l0.4,0l0.4-0.3
		c0.2-0.2,0.6-0.9,1.4-2.1l1.3,0.7c-0.9,1.4-1.9,3.1-3,4.9C392.3,335.6,391.2,337.6,390.2,339.5"/>
	<path id="XMLID_43_" class="st0" d="M368,331.4l0.7,0.6c0,0.1-0.1,0.3-0.1,0.6c-0.1,0.5-0.2,1.1-0.3,1.6c1,1.1,2.8,2.8,5.4,5
		l2.1,1.8c1.1,1,2.8,2.4,5,4.2c1.2,1,2,1.6,2.5,1.8l0.3,0l0.5-0.2c0.2-0.1,0.8-0.7,1.9-1.7l1.1,0.9l-4.9,5.4
		c-0.6,0.6-1.6,1.9-3.1,3.7c-1.1,1.3-2,2.4-2.6,3.1c-1.6,1.8-2.9,3.1-4,4c-1.1,0.9-2.2,1.6-3.3,2c-1.1,0.4-2.2,0.7-3.2,0.8
		c-1,0.1-2,0-2.9-0.3c-1.5-0.5-2.9-1.2-4.2-2.4c-1.6-1.4-2.8-3-3.4-4.9c-0.7-1.8-0.9-3.7-0.7-5.7c0.2-2,0.8-3.9,1.6-5.6
		c0.9-1.8,2.2-3.7,4-5.7l4-4.4L368,331.4z M364.3,338.9c-0.9,0.8-1.8,1.7-2.5,2.5c-1.2,1.3-2.1,2.6-2.7,3.9c-0.5,0.9-0.8,1.8-1,2.7
		c-0.2,0.9-0.1,1.9,0.1,3c0.2,1.1,0.6,2.2,1.3,3.3c0.7,1.1,1.5,2.1,2.6,3c1,0.8,2,1.5,3.2,2c1.2,0.5,2.4,0.7,3.6,0.6
		c1.3-0.1,2.5-0.5,3.7-1.2c1.2-0.8,2.7-2.2,4.5-4.2c0.7-0.8,1.4-1.7,2.1-2.7c-1.2-1.1-3.4-3.1-6.8-6l-2.9-2.5
		C366.9,341,365.2,339.6,364.3,338.9"/>
	<path id="XMLID_46_" class="st0" d="M346.3,355.8l0.9,1.2c-0.8,0.7-1.3,1.1-1.4,1.3l-0.3,0.5l-0.1,0.7c0,0.3,0.2,1.2,0.5,2.9
		c0.1,0.8,0.4,2.3,0.9,4.5l2.4,11.9l0.9,4.1l-2.3,1.7l-17.8-8.8l-2.4-1.1L326,374l-0.6-0.1l-0.5,0.1c-0.2,0.1-0.5,0.3-1,0.6
		c-0.2,0.1-0.4,0.3-0.8,0.5l-0.9-1.2l4.5-3.2l5.5-4.3l0.9,1.2c-1.3,1-1.9,1.6-2,1.8l0,0.6c0.2,0.2,0.6,0.5,1.2,0.8l3.6,1.9l8.4-6.3
		l-0.5-2.1c-0.4-1.6-0.7-2.6-0.9-2.9l-0.6-0.3c-0.3,0.1-1.2,0.6-2.5,1.5l-0.9-1.2l3.8-2.7L346.3,355.8z M344.8,368.5
		c-1,0.7-2.2,1.6-3.5,2.5c-1.2,0.9-2.3,1.8-3.3,2.6l8.7,4.4L344.8,368.5"/>
	<path id="XMLID_47_" class="st0" d="M68.9,250h1.4c0-49.7,20.1-94.6,52.7-127.1c32.5-32.5,77.5-52.7,127.1-52.7
		c49.7,0,94.6,20.1,127.1,52.7c32.5,32.5,52.7,77.5,52.7,127.1c0,49.7-20.1,94.6-52.7,127.1c-32.5,32.5-77.5,52.7-127.1,52.7
		c-49.7,0-94.6-20.1-127.1-52.7C90.3,344.6,70.2,299.7,70.2,250H68.9h-1.4c0,100.8,81.7,182.5,182.5,182.5
		c100.8,0,182.5-81.7,182.5-182.5c0-100.8-81.7-182.5-182.5-182.5C149.2,67.5,67.5,149.2,67.5,250H68.9z"/>
	<path id="XMLID_48_" class="st0" d="M196.9,385.2c0,0-5,5.3-11.8,4.7c0,0,5.6,4.4,4.7,11.2c0,0,5.3-5.3,12.4-4c0,0-5.6-5.6-5-9.9
		L196.9,385.2"/>
	<path id="XMLID_49_" class="st0" d="M196.9,385.2l-0.5-0.4l-0.2,0.2c-0.9,0.9-4.9,4.3-10.1,4.3c-0.3,0-0.7,0-1.1,0l-2.1-0.2
		l1.7,1.3l0.2,0.2c0.9,0.7,4.4,4.1,4.3,9c0,0.5,0,0.9-0.1,1.4l-0.2,1.8l1.3-1.3l0.2-0.2c0.8-0.8,4.6-3.9,9.6-3.9
		c0.7,0,1.4,0.1,2.1,0.2l1.9,0.3l-1.4-1.4c0,0-0.3-0.3-0.8-0.8c-1.4-1.6-4.1-5.2-4.1-8l0-0.6l0-0.1l-0.3-2l-0.2-1.2l-0.9,0.9
		L196.9,385.2l-0.6,0.1l0.3,1.9l0.6-0.1l-0.6-0.1l-0.1,0.8c0,2.4,1.3,4.7,2.6,6.6c1.3,1.8,2.6,3.1,2.6,3.1l0.4-0.4l0.1-0.6
		c-0.8-0.1-1.6-0.2-2.3-0.2c-6.3,0-10.6,4.4-10.7,4.4l0.4,0.4l0.6,0.1c0.1-0.6,0.1-1.1,0.1-1.6c0-6.3-5-10.1-5-10.2l-0.4,0.5
		l-0.1,0.6c0.4,0,0.8,0.1,1.2,0.1c6.6,0,11.1-4.9,11.1-4.9L196.9,385.2l-0.6,0.1L196.9,385.2z"/>
	<path id="XMLID_50_" class="st0" d="M304.8,385.5c0,0,0.3,7.5-4.3,10.9c0,0,6.8,0,11.5,5.6c0,0-0.3-7.8,3.1-11.5c0,0-6.2-0.9-8.4-4
		L304.8,385.5z"/>
	<path id="XMLID_51_" class="st0" d="M304.8,385.5l-0.6,0l0,0.3c0,1.4-0.3,7.3-4.1,10.1l-1.5,1.1h1.9l0.3,0
		c1.3,0.1,6.9,0.7,10.8,5.4l1.2,1.4l-0.1-1.8c0,0,0-0.2,0-0.5c0-1.7,0.3-7.7,3-10.6l0.8-0.9l-1.2-0.2c0,0-0.4-0.1-1-0.2
		c-1.8-0.4-5.6-1.5-7-3.6l-0.1-0.1l-2-1l-0.9-0.5l0,1.1L304.8,385.5l-0.3,0.6l1.9,0.9l0.3-0.6l-0.5,0.4c1.2,1.8,3.4,2.8,5.3,3.4
		c1.9,0.6,3.5,0.9,3.5,0.9l0.1-0.6l-0.5-0.4c-3.1,3.5-3.3,9.6-3.3,11.4c0,0.3,0,0.5,0,0.5l0.6,0l0.5-0.4c-4.9-5.8-11.9-5.8-12-5.8
		v0.6l0.4,0.5c4.4-3.3,4.6-9.6,4.6-11.1l0-0.3L304.8,385.5l-0.3,0.6L304.8,385.5z"/>
	<path id="XMLID_67_" class="st0" d="M381,272.7l-37.3,0c-4.2,28.6-6,45.2-6.5,49.7h0c-0.1,0.8-0.1,1.3-0.1,1.3
		c-8.7,10.3-23,8.1-23,8.1l3.8-9.3l4.3-10.6c8.7,5.6,8.7-6.7,8.7-6.7l0.2-32.1h-2.7c-7,20-15.8,36.9-24.3,49.4
		c-10.3,15.3-20.3,24.6-26.3,29.6h0c-3.6,3-5.7,4.5-5.7,4.5c1.2-1.4,2.4-2.9,3.4-4.4l-1.2-0.1h1.2c7.8-11,10-22.2,10.5-29.7l0,0.1
		c0.3-5.5-0.2-8.8-0.2-8.8c-1.4-17.9-15.1-34.5-21.4-40.5h-6.2c8.5,10,13.4,16.9,13.4,16.9c8.9,14.4,10.1,27.7,10.3,32.5
		c0,1.2,0,1.7,0,1.7c-1.1,12.5-6.6,21.8-11.2,27.8h0c-3.5,5-6.5,6.8-6.5,6.8c1.4-2.5,2.7-4.8,3.7-6.8h0c3.1-6,4.4-10,4.4-10
		c1.7-8,0.9-15-0.5-20h0c-1.7-6-4.4-9.8-4.4-9.8c-7.5-11.8-31.4-25.1-31.4-25.1c-9.3-5.2-16.9-10.2-22.9-14.6l-7.5,0
		c9.7,7.5,17.6,12.1,17.6,12.1c21.1,12.4,28.9,18.7,28.9,18.7c8,5.8,12.4,13.9,14.5,19c1.2,2.8,1.6,4.7,1.6,4.7
		c0.6,12.5-2.1,20.4-4.9,25.2l2.3,0l-2.3,0c-2.6,4.5-5.4,6.2-5.4,6.2c0.8-2.1,1.4-4.2,1.7-6.2c1.8-11-2.6-20.1-2.6-20.1
		c-1.8-3.9-4.8-7.1-8.3-10.1h0c-9.1-7-21.2-10.7-21.2-10.7c-12.4-3.7-30.1-10.5-30.1-10.5c-18.5-7-31.5-18.2-40.1-28.2l-7.1,0
		c8.8,11,18,18.3,18,18.3c19.9,14.6,51.6,22.7,51.6,22.7c8.9,2.1,15.6,5.4,20.7,8.7l2.8,0l-2.8,0c9.7,6.4,13.2,13,13.2,13
		c2.6,7,3,12.5,2.3,16.8c-1.6,10.3-9.5,13.4-9.5,13.4c2.2-5.6,2.4-9.9,1.4-13.4l-1.9,0l1.9,0c-3.5-12-21.9-12.4-21.9-12.4
		c-32.8,0.5-56.8-11.6-66.4-17.4l-3.7,0l3.7,0c-3.1-1.9-4.7-2.9-4.7-2.9c-19.8-14.7-27.5-34.4-30.5-46.4h-5.1
		c3.2,18,10.2,34.8,19.9,49.5l5.1-0.1c-6.6-9.9-9.1-17.1-9.1-17.1l9.6,10.7c2.3,2.3,4.8,4,7.3,6h0c10.1,8,20.4,12.3,20.4,12.3
		c14.9,7.8,38.5,9.1,38.5,9.1c18.6,0.3,25.8,3,25.8,3c3.3,1.7,5.3,3.5,6.4,5.5h0c3.4,6-1.1,12.2-1.1,12.2c-9.6,10.9-32,7.1-32,7.1
		c-15-5.1-27.3-11.3-37.2-19.3h0c-13.5-10-22.7-20.9-28.6-29.7l-5.1,0c7.5,11.3,16.6,21.8,27,29.8h0c22.9,19,52.1,29.9,83.9,29.9
		c31.8,0,61.1-11.1,83.9-29.8c10.4-8.5,19.6-18.5,27-29.8l-7.8,0l7.8,0C370.8,307.6,377.8,290.8,381,272.7z"/>
	<path id="XMLID_68_" class="st0" d="M328.4,272.7c1-2.8,1.9-5.7,2.8-8.7l-0.1,8.7H328.4"/>
	<path id="XMLID_99_" class="st0" d="M250.1,116c-73.5,0-133,59.7-133,133.2c0,8.1,0.7,15.8,2.1,23.8h5.1c-1.9-8-1.9-13.5-1.9-13.5
		c-0.9-42.3,11.2-63.2,11.2-63.2l-1.6,9.9c-3.1,18.6,4,40.2,4,40.2c2.4,9.8,8.1,18.6,14,26.6h7.1c-9.8-12-13.9-21.3-13.9-21.3
		c-14-32.3-2.8-63.2-2.8-63.2c15.2-38.2,56.3-57.2,56.3-57.2l-3.1,3.4c-9.3,7.5-12.4,12.4-12.4,12.4c-14,18.6-16.2,36-16.2,36
		c-6.2,26.7,9.6,55.5,9.6,55.5c6.9,13.6,20,25.4,30.9,34.4h7.5c-11.1-8-16.6-13.8-16.6-13.8c-25.5-24.2-27.3-51.4-27.3-51.4
		c-0.9-36.1,11.5-53.2,11.5-53.2c19.9-28,43.5-32,43.5-32c39.5-10.3,66.8,4,66.8,4l-12.4-1.3c-14.6-2.5-26.7,1.9-26.7,1.9
		c-17.1,4.7-29.2,20.5-29.2,20.5c-11.5,12.1-15.9,34.5-15.9,34.5c-1.6,13.4,1.6,28.9,1.6,28.9c5,20.2,25.2,36.5,25.2,36.5
		c9.9,8.6,18.4,17.3,24.9,25.3h6.2c-1.9-2-3.1-3.3-3.1-3.3c-36.7-36.4-36.1-38.9-36.1-38.9c37.6-62.2,82.7-32.7,82.7-32.7
		c1.6-5.6,8.1-13.1,8.1-13.1l5.6,58.4c-9.3,11.5-17.1,9.9-17.1,9.9c-7.1-28-18-25.5-18-25.5c-9.6,3.1-6.8,20.5-6.8,20.5
		c2.8,21.8,20.8,18.6,20.8,18.6c20.2-6.8,32.3-26.7,32.3-26.7l13.7,14.5c-1,6.5-1.9,12.2-2.7,18.2H381c1.4-8,2.1-15.7,2.1-23.8
		C383.1,175.7,323.5,116,250.1,116z M256.3,165.7c0,0-2.8-11.8-12.4-14.3c0,0,10.3-2.2,13.1-11.2l1.2-2.5c0,0,0.6,12.1,13.4,15.2
		C271.5,153,260,152.7,256.3,165.7z"/>
	<path id="XMLID_73_" class="st1" d="M217,222.5l1.6-2.3c0.3-0.4,0.5-0.7,0.8-0.8c0.5-0.3,1.1-0.3,1.7,0.1c0.3,0.2,0.5,0.4,0.6,0.7
		c0.1,0.3,0.1,0.6,0.1,0.9l0.6-0.2c0.2,0,0.5,0.1,0.8,0.3l0.7,0.4l0.5,0.3l0.5,0l0.1,0.1l-0.6,0.9l-0.2-0.1l-0.4-0.2l-0.9-0.5
		c-0.3-0.2-0.7-0.2-0.9-0.1l-0.5,0.5l-1,1.5l2.2,1.5l-0.5,0.7L217,222.5z M220.9,221.8c0.2-0.3,0.3-0.6,0.3-0.9
		c0-0.3-0.2-0.5-0.5-0.8c-0.4-0.2-0.7-0.3-1-0.1l-0.5,0.5l-1.1,1.7l1.8,1.2L220.9,221.8"/>
	<polygon id="XMLID_74_" class="st1" points="220.7,217.2 223.3,213.5 224,213.9 221.8,216.9 223.3,218.1 225.3,215.3 225.9,215.7 
		223.9,218.5 225.6,219.7 227.8,216.7 228.4,217.1 225.7,220.8 	"/>
	<path id="XMLID_77_" class="st1" d="M225.5,210.9l0.6-0.7l6.3,2.2l-0.6,0.7l-1.9-0.7l-1.5,1.9l1,1.7l-0.5,0.7L225.5,210.9z
		 M229.2,212.2l-2.7-1l1.5,2.5L229.2,212.2z"/>
	<path id="XMLID_78_" class="st1" d="M231.7,204.7c0.6,0,1.1,0.1,1.5,0.4l-0.6,0.6c-0.4-0.2-0.7-0.3-1.1-0.2c-0.4,0-0.7,0.2-1,0.6
		c-0.4,0.4-0.6,0.9-0.5,1.5c0.1,0.6,0.4,1.2,1.1,1.8c0.5,0.5,1.1,0.8,1.6,0.8c0.6,0.1,1.1-0.1,1.5-0.6c0.4-0.4,0.6-1,0.4-1.5
		c-0.1-0.3-0.2-0.6-0.5-1l0.6-0.6c0.4,0.5,0.7,1.1,0.7,1.7c0.1,0.7-0.2,1.4-0.8,2c-0.5,0.5-1.1,0.8-1.7,0.9
		c-0.9,0.1-1.7-0.3-2.6-1.1c-0.7-0.6-1.1-1.3-1.2-2.1c-0.1-0.8,0.1-1.6,0.8-2.2C230.5,205,231.1,204.7,231.7,204.7"/>
	<polygon id="XMLID_79_" class="st1" points="232.9,202.9 233.5,202.3 235.3,204.1 237.6,201.9 235.8,200.1 236.4,199.5 
		240.8,203.9 240.2,204.5 238.1,202.4 235.9,204.7 237.9,206.7 237.3,207.3 	"/>
	<polygon id="XMLID_80_" class="st1" points="240,196.4 243.5,193.8 243.9,194.4 241.1,196.5 242.3,198 244.7,196.2 245.2,196.8 
		242.7,198.6 244.4,200.9 243.8,201.4 	"/>
	<path id="XMLID_83_" class="st1" d="M249.2,190.9c0.7,0.2,1.2,0.7,1.7,1.4c0.5,0.8,0.8,1.5,0.7,2.3c-0.1,0.9-0.5,1.7-1.4,2.2
		c-0.8,0.5-1.6,0.7-2.4,0.5c-0.8-0.2-1.4-0.7-1.9-1.5c-0.5-0.7-0.7-1.4-0.7-2.2c0-0.9,0.5-1.7,1.3-2.3
		C247.5,190.8,248.4,190.6,249.2,190.9 M250.8,194.7c0-0.6-0.2-1.2-0.6-1.8c-0.4-0.6-0.9-1-1.5-1.1c-0.6-0.2-1.1,0-1.7,0.3
		c-0.5,0.4-0.8,0.8-0.9,1.4c-0.1,0.6,0.1,1.3,0.6,2c0.4,0.6,0.9,1,1.4,1.2c0.6,0.2,1.2,0.1,1.8-0.4
		C250.6,195.8,250.9,195.3,250.8,194.7"/>
	<path id="XMLID_86_" class="st1" d="M250.8,189l2.5-1.3c0.4-0.2,0.8-0.3,1.1-0.4c0.6,0,1.1,0.3,1.5,0.9c0.2,0.3,0.3,0.6,0.2,0.9
		l-0.3,0.8l0.7,0.1c0.2,0.1,0.4,0.3,0.6,0.6l0.4,0.7l0.3,0.4l0.4,0.2l0.1,0.1l-0.9,0.5l-0.2-0.2l-0.3-0.4l-0.5-0.9
		c-0.2-0.4-0.5-0.5-0.8-0.5c-0.2,0-0.4,0.1-0.7,0.2l-1.6,0.9l1.3,2.4l-0.8,0.4L250.8,189z M254.5,190.2c0.3-0.2,0.6-0.4,0.7-0.6
		c0.1-0.2,0.1-0.6-0.1-0.9c-0.2-0.4-0.5-0.6-0.8-0.6l-0.7,0.2l-1.8,0.9l1,1.9L254.5,190.2"/>
	<polygon id="XMLID_87_" class="st1" points="263.3,183.3 263.6,184 261.6,184.8 263.6,189.9 262.8,190.2 260.8,185.1 258.8,185.8 
		258.6,185.1 	"/>
	<polygon id="XMLID_88_" class="st1" points="264.9,182.8 265.7,182.6 266.3,185.1 269.4,184.4 268.8,181.9 269.7,181.7 
		271.1,187.8 270.2,188 269.6,185.1 266.4,185.8 267.1,188.7 266.3,188.9 	"/>
	<polygon id="XMLID_89_" class="st1" points="271.5,181.4 276,180.6 276.1,181.4 272.4,182 272.7,183.8 276.1,183.3 276.2,184 
		272.8,184.6 273.2,186.7 276.9,186.1 277,186.8 272.5,187.5 	"/>
	<path id="XMLID_90_" class="st1" d="M281.1,184.7c0,0.4,0.1,0.6,0.2,0.9c0.3,0.4,0.7,0.6,1.4,0.6c0.3,0,0.6,0,0.8-0.1
		c0.5-0.2,0.7-0.5,0.7-0.9c0-0.3-0.1-0.6-0.3-0.7c-0.2-0.1-0.5-0.3-1-0.4l-0.8-0.2c-0.5-0.1-0.9-0.3-1.1-0.4
		c-0.4-0.3-0.6-0.7-0.6-1.2c0-0.6,0.2-1,0.6-1.4c0.4-0.4,0.9-0.5,1.6-0.5c0.6,0,1.2,0.2,1.6,0.5c0.4,0.3,0.7,0.8,0.6,1.5l-0.8,0
		c0-0.3-0.1-0.6-0.2-0.8c-0.2-0.3-0.7-0.5-1.2-0.5c-0.5,0-0.8,0.1-1,0.3l-0.3,0.7c0,0.3,0.1,0.5,0.4,0.7c0.2,0.1,0.5,0.2,1.1,0.4
		l0.8,0.2c0.4,0.1,0.7,0.2,0.9,0.4c0.4,0.3,0.6,0.7,0.6,1.3c0,0.7-0.3,1.2-0.8,1.5c-0.5,0.3-1.1,0.4-1.7,0.4c-0.8,0-1.3-0.2-1.8-0.6
		c-0.4-0.4-0.6-0.9-0.6-1.6L281.1,184.7"/>
	<polygon id="XMLID_91_" class="st1" points="291.8,181.5 291.7,182.2 289.6,181.9 288.8,187.3 287.9,187.2 288.8,181.7 
		286.7,181.4 286.8,180.7 	"/>
	<path id="XMLID_94_" class="st1" d="M294.3,182l0.9,0.2l0.7,6.6l-0.9-0.2l-0.2-2l-2.4-0.6l-1.1,1.7l-0.8-0.2L294.3,182z
		 M294.7,185.9l-0.3-2.9l-1.6,2.4L294.7,185.9z"/>
	<path id="XMLID_97_" class="st1" d="M298.7,183.2l2.7,0.9c0.4,0.2,0.8,0.3,1,0.6c0.5,0.4,0.6,1,0.3,1.7c-0.1,0.4-0.3,0.6-0.5,0.8
		c-0.2,0.2-0.5,0.3-0.8,0.3l0.4,0.6c0.1,0.2,0,0.5-0.1,0.8l-0.2,0.8l-0.1,0.5l0.1,0.5l0,0.1l-1-0.3l0-0.2l0.1-0.5l0.3-1
		c0.1-0.4,0.1-0.7-0.1-0.9c-0.1-0.1-0.3-0.2-0.7-0.3l-1.8-0.6l-0.9,2.5l-0.8-0.3L298.7,183.2z M300.4,186.8c0.4,0.1,0.7,0.2,0.9,0.1
		c0.3-0.1,0.5-0.3,0.6-0.7c0.1-0.4,0.1-0.8-0.1-1l-0.6-0.3l-1.9-0.6l-0.7,2L300.4,186.8"/>
	<path id="XMLID_98_" class="st1" d="M303.9,189.7c-0.1,0.3-0.2,0.6-0.2,0.9c0.1,0.5,0.4,0.9,1,1.2l0.8,0.2c0.5,0.1,0.9-0.1,1.1-0.5
		c0.2-0.3,0.2-0.6,0-0.8c-0.1-0.2-0.4-0.5-0.7-0.8l-0.7-0.5c-0.4-0.3-0.7-0.6-0.8-0.9c-0.2-0.4-0.2-0.8,0-1.3c0.2-0.5,0.6-0.8,1.1-1
		c0.5-0.2,1.1-0.1,1.7,0.2c0.6,0.3,1,0.7,1.3,1.1c0.3,0.5,0.2,1-0.1,1.7l-0.7-0.3c0.1-0.3,0.1-0.6,0.1-0.8c-0.1-0.4-0.4-0.7-0.9-1
		c-0.4-0.2-0.8-0.3-1.1-0.2l-0.6,0.5l0,0.8c0.1,0.2,0.4,0.4,0.8,0.8l0.7,0.6c0.3,0.3,0.6,0.5,0.7,0.8c0.2,0.4,0.2,0.9,0,1.4
		c-0.3,0.6-0.7,1-1.3,1c-0.6,0.1-1.1-0.1-1.7-0.3c-0.7-0.3-1.1-0.8-1.3-1.3c-0.2-0.5-0.2-1.1,0.1-1.7L303.9,189.7"/>
</g>
</svg>
